<?xml version="1.0" encoding="UTF-8"?>
<svg xmlns="http://www.w3.org/2000/svg" width="980" height="620" viewBox="0 0 980 620">
  <rect width="980" height="620" fill="#ffffff" />
  <text x="490" y="34" font-size="28" font-weight="700" text-anchor="middle" fill="#111827">Scalability of Trust Registry Read Latency</text>
  
      <line x1="90" y1="52" x2="120" y2="52" stroke="#d97706" stroke-width="4" />
      <text x="130" y="57" font-size="16" fill="#111827">Variant A</text>
    

      <line x1="270" y1="52" x2="300" y2="52" stroke="#2563eb" stroke-width="4" />
      <text x="310" y="57" font-size="16" fill="#111827">Variant B</text>
    

      <line x1="450" y1="52" x2="480" y2="52" stroke="#059669" stroke-width="4" />
      <text x="490" y="57" font-size="16" fill="#111827">Variant C</text>
    
  <text x="490" y="608" font-size="16" text-anchor="middle" fill="#374151">Entity Count</text>
  <text x="24" y="305" font-size="16" text-anchor="middle" fill="#374151" transform="rotate(-90, 24, 305)">Milliseconds</text>
  <line x1="90" y1="530" x2="920" y2="530" stroke="#e5e7eb" stroke-width="1" />
<text x="78" y="535" font-size="14" text-anchor="end" fill="#6b7280">0</text>
<line x1="90" y1="440" x2="920" y2="440" stroke="#e5e7eb" stroke-width="1" />
<text x="78" y="445" font-size="14" text-anchor="end" fill="#6b7280">10.11</text>
<line x1="90" y1="350" x2="920" y2="350" stroke="#e5e7eb" stroke-width="1" />
<text x="78" y="355" font-size="14" text-anchor="end" fill="#6b7280">20.22</text>
<line x1="90" y1="260" x2="920" y2="260" stroke="#e5e7eb" stroke-width="1" />
<text x="78" y="265" font-size="14" text-anchor="end" fill="#6b7280">30.33</text>
<line x1="90" y1="170.00000000000006" x2="920" y2="170.00000000000006" stroke="#e5e7eb" stroke-width="1" />
<text x="78" y="175.00000000000006" font-size="14" text-anchor="end" fill="#6b7280">40.44</text>
<line x1="90" y1="80.00000000000006" x2="920" y2="80.00000000000006" stroke="#e5e7eb" stroke-width="1" />
<text x="78" y="85.00000000000006" font-size="14" text-anchor="end" fill="#6b7280">50.56</text>
  <line x1="90" y1="530" x2="920" y2="530" stroke="#374151" stroke-width="2" />
  
      <line x1="90" y1="530" x2="90" y2="536" stroke="#374151" stroke-width="2" />
      <text x="90" y="575" font-size="16" text-anchor="middle" fill="#111827">3</text>
    

      <line x1="445.7142857142857" y1="530" x2="445.7142857142857" y2="536" stroke="#374151" stroke-width="2" />
      <text x="445.7142857142857" y="575" font-size="16" text-anchor="middle" fill="#111827">6</text>
    

      <line x1="801.4285714285714" y1="530" x2="801.4285714285714" y2="536" stroke="#374151" stroke-width="2" />
      <text x="801.4285714285714" y="575" font-size="16" text-anchor="middle" fill="#111827">9</text>
    

      <line x1="920" y1="530" x2="920" y2="536" stroke="#374151" stroke-width="2" />
      <text x="920" y="575" font-size="16" text-anchor="middle" fill="#111827">10</text>
    
  
      <polyline fill="none" stroke="#d97706" stroke-width="4" points="90,330.2610966057441 445.7142857142857,286.20104438642295 801.4285714285714,336.4918110610017 920,283.44172798480895" />
      
        <line x1="90" y1="268.3990030856872" x2="90" y2="392.1231901258011" stroke="#d97706" stroke-width="2" />
        <line x1="84" y1="268.3990030856872" x2="96" y2="268.3990030856872" stroke="#d97706" stroke-width="2" />
        <line x1="84" y1="392.1231901258011" x2="96" y2="392.1231901258011" stroke="#d97706" stroke-width="2" />
        <circle cx="90" cy="330.2610966057441" r="5" fill="#d97706" />
      

        <line x1="445.7142857142857" y1="235.0201756468075" x2="445.7142857142857" y2="337.38191312603846" stroke="#d97706" stroke-width="2" />
        <line x1="439.7142857142857" y1="235.0201756468075" x2="451.7142857142857" y2="235.0201756468075" stroke="#d97706" stroke-width="2" />
        <line x1="439.7142857142857" y1="337.38191312603846" x2="451.7142857142857" y2="337.38191312603846" stroke="#d97706" stroke-width="2" />
        <circle cx="445.7142857142857" cy="286.20104438642295" r="5" fill="#d97706" />
      

        <line x1="801.4285714285714" y1="292.8768098741989" x2="801.4285714285714" y2="380.10681224780444" stroke="#d97706" stroke-width="2" />
        <line x1="795.4285714285714" y1="292.8768098741989" x2="807.4285714285714" y2="292.8768098741989" stroke="#d97706" stroke-width="2" />
        <line x1="795.4285714285714" y1="380.10681224780444" x2="807.4285714285714" y2="380.10681224780444" stroke="#d97706" stroke-width="2" />
        <circle cx="801.4285714285714" cy="336.4918110610017" r="5" fill="#d97706" />
      

        <line x1="920" y1="210.0083076192737" x2="920" y2="356.8751483503442" stroke="#d97706" stroke-width="2" />
        <line x1="914" y1="210.0083076192737" x2="926" y2="210.0083076192737" stroke="#d97706" stroke-width="2" />
        <line x1="914" y1="356.8751483503442" x2="926" y2="356.8751483503442" stroke="#d97706" stroke-width="2" />
        <circle cx="920" cy="283.44172798480895" r="5" fill="#d97706" />
      
    

      <polyline fill="none" stroke="#2563eb" stroke-width="4" points="90,360.88060764300974 445.7142857142857,248.1046760028483 801.4285714285714,293.9449323522431 920,320.82601471635417" />
      
        <line x1="90" y1="332.5753619748398" x2="90" y2="389.1858533111797" stroke="#2563eb" stroke-width="2" />
        <line x1="84" y1="332.5753619748398" x2="96" y2="332.5753619748398" stroke="#2563eb" stroke-width="2" />
        <line x1="84" y1="389.1858533111797" x2="96" y2="389.1858533111797" stroke="#2563eb" stroke-width="2" />
        <circle cx="90" cy="360.88060764300974" r="5" fill="#2563eb" />
      

        <line x1="445.7142857142857" y1="120.90909090909093" x2="445.7142857142857" y2="375.3002610966057" stroke="#2563eb" stroke-width="2" />
        <line x1="439.7142857142857" y1="120.90909090909093" x2="451.7142857142857" y2="120.90909090909093" stroke="#2563eb" stroke-width="2" />
        <line x1="439.7142857142857" y1="375.3002610966057" x2="451.7142857142857" y2="375.3002610966057" stroke="#2563eb" stroke-width="2" />
        <circle cx="445.7142857142857" cy="248.1046760028483" r="5" fill="#2563eb" />
      

        <line x1="801.4285714285714" y1="273.3835746498932" x2="801.4285714285714" y2="314.5062900545929" stroke="#2563eb" stroke-width="2" />
        <line x1="795.4285714285714" y1="273.3835746498932" x2="807.4285714285714" y2="273.3835746498932" stroke="#2563eb" stroke-width="2" />
        <line x1="795.4285714285714" y1="314.5062900545929" x2="807.4285714285714" y2="314.5062900545929" stroke="#2563eb" stroke-width="2" />
        <circle cx="801.4285714285714" cy="293.9449323522431" r="5" fill="#2563eb" />
      

        <line x1="920" y1="309.1656776643722" x2="920" y2="332.48635176833614" stroke="#2563eb" stroke-width="2" />
        <line x1="914" y1="309.1656776643722" x2="926" y2="309.1656776643722" stroke="#2563eb" stroke-width="2" />
        <line x1="914" y1="332.48635176833614" x2="926" y2="332.48635176833614" stroke="#2563eb" stroke-width="2" />
        <circle cx="920" cy="320.82601471635417" r="5" fill="#2563eb" />
      
    

      <polyline fill="none" stroke="#059669" stroke-width="4" points="90,325.2765250415381 445.7142857142857,254.6024210776169 801.4285714285714,291.6306669831474 920,276.32091146451467" />
      
        <line x1="90" y1="268.66603370519823" x2="90" y2="381.887016377878" stroke="#059669" stroke-width="2" />
        <line x1="84" y1="268.66603370519823" x2="96" y2="268.66603370519823" stroke="#059669" stroke-width="2" />
        <line x1="84" y1="381.887016377878" x2="96" y2="381.887016377878" stroke="#059669" stroke-width="2" />
        <circle cx="90" cy="325.2765250415381" r="5" fill="#059669" />
      

        <line x1="445.7142857142857" y1="211.07643009731783" x2="445.7142857142857" y2="298.12841205791597" stroke="#059669" stroke-width="2" />
        <line x1="439.7142857142857" y1="211.07643009731783" x2="451.7142857142857" y2="211.07643009731783" stroke="#059669" stroke-width="2" />
        <line x1="439.7142857142857" y1="298.12841205791597" x2="451.7142857142857" y2="298.12841205791597" stroke="#059669" stroke-width="2" />
        <circle cx="445.7142857142857" cy="254.6024210776169" r="5" fill="#059669" />
      

        <line x1="801.4285714285714" y1="257.2727272727273" x2="801.4285714285714" y2="325.98860669356753" stroke="#059669" stroke-width="2" />
        <line x1="795.4285714285714" y1="257.2727272727273" x2="807.4285714285714" y2="257.2727272727273" stroke="#059669" stroke-width="2" />
        <line x1="795.4285714285714" y1="325.98860669356753" x2="807.4285714285714" y2="325.98860669356753" stroke="#059669" stroke-width="2" />
        <circle cx="801.4285714285714" cy="291.6306669831474" r="5" fill="#059669" />
      

        <line x1="920" y1="217.39615475907908" x2="920" y2="335.24566816995014" stroke="#059669" stroke-width="2" />
        <line x1="914" y1="217.39615475907908" x2="926" y2="217.39615475907908" stroke="#059669" stroke-width="2" />
        <line x1="914" y1="335.24566816995014" x2="926" y2="335.24566816995014" stroke="#059669" stroke-width="2" />
        <circle cx="920" cy="276.32091146451467" r="5" fill="#059669" />
      
    
</svg>
